<?xml version="1.0" encoding="UTF-8" standalone="no"?>
<!DOCTYPE svg PUBLIC "-//W3C//DTD SVG 1.1//EN" "http://www.w3.org/Graphics/SVG/1.1/DTD/svg11.dtd">
<svg width="100%" height="100%" viewBox="0 0 3024 3024" version="1.1" xmlns="http://www.w3.org/2000/svg" xmlns:xlink="http://www.w3.org/1999/xlink" xml:space="preserve" xmlns:serif="http://www.serif.com/" style="fill-rule:evenodd;clip-rule:evenodd;stroke-linejoin:round;stroke-miterlimit:2;">
    <g transform="matrix(1.03717,0,0,1.03717,-56.1887,-56.1887)">
        <g transform="matrix(0.723124,0,0,0.723124,418.584,418.584)">
            <path d="M1511.81,0C2346.2,0 3023.62,677.42 3023.62,1511.81C3023.62,2346.2 2346.2,3023.62 1511.81,3023.62C677.42,3023.62 0,2346.2 0,1511.81C0,677.42 677.42,0 1511.81,0ZM1511.81,377.953C2137.6,377.953 2645.67,886.018 2645.67,1511.81C2645.67,2137.6 2137.6,2645.67 1511.81,2645.67C886.018,2645.67 377.953,2137.6 377.953,1511.81C377.953,886.018 886.018,377.953 1511.81,377.953Z" style="fill:white;"/>
        </g>
        <g transform="matrix(0.723124,0,0,0.723124,418.584,418.584)">
            <path d="M1511.81,1244.56L1912.69,843.679L2179.94,1110.93L1779.06,1511.81L2179.94,1912.69L1912.69,2179.94L1511.81,1779.06L1110.93,2179.94L843.679,1912.69L1244.56,1511.81L843.679,1110.93L1110.93,843.679L1511.81,1244.56Z" style="fill:white;"/>
        </g>
    </g>
</svg>
