<?xml version="1.0" encoding="UTF-8" standalone="no"?>
<!DOCTYPE svg PUBLIC "-//W3C//DTD SVG 1.1//EN" "http://www.w3.org/Graphics/SVG/1.1/DTD/svg11.dtd">
<svg width="100%" height="100%" viewBox="0 0 3024 3024" version="1.1" xmlns="http://www.w3.org/2000/svg" xmlns:xlink="http://www.w3.org/1999/xlink" xml:space="preserve" xmlns:serif="http://www.serif.com/" style="fill-rule:evenodd;clip-rule:evenodd;stroke-linejoin:round;stroke-miterlimit:2;">
    <g transform="matrix(1.00625,0,0,1,-18.8976,0)">
        <path d="M1676.68,8.117C1573.31,-2.706 1469.1,-2.706 1365.72,8.117L1270.07,329.056C1188.76,346.536 1109.47,372.46 1033.48,406.41L768.629,203.337C678.674,255.723 594.365,317.36 517.055,387.258L627.146,703.473C571.575,765.708 522.572,833.577 480.923,905.99L148.032,898.349C105.858,993.934 73.655,1093.66 51.94,1195.94L325.718,1386.65C317.113,1469.87 317.113,1553.76 325.718,1636.97L51.94,1827.68C73.655,1929.96 105.858,2029.69 148.032,2125.27L480.923,2117.63C522.572,2190.05 571.575,2257.91 627.146,2320.15L517.055,2636.36C594.365,2706.26 678.674,2767.9 768.629,2820.28L1033.48,2617.21C1109.47,2651.16 1188.76,2677.09 1270.07,2694.57L1365.72,3015.51C1469.1,3026.33 1573.31,3026.33 1676.68,3015.51L1772.33,2694.57C1853.64,2677.09 1932.93,2651.16 2008.92,2617.21L2273.77,2820.28C2363.73,2767.9 2448.04,2706.26 2525.35,2636.36L2415.26,2320.15C2470.83,2257.91 2519.83,2190.05 2561.48,2117.63L2894.37,2125.27C2936.54,2029.69 2968.75,1929.96 2990.46,1827.68L2716.68,1636.97C2725.29,1553.76 2725.29,1469.87 2716.68,1386.65L2990.46,1195.94C2968.75,1093.66 2936.54,993.934 2894.37,898.349L2561.48,905.99C2519.83,833.577 2470.83,765.708 2415.26,703.473L2525.35,387.258C2448.04,317.36 2363.73,255.723 2273.77,203.337L2008.92,406.41C1932.93,372.46 1853.64,346.536 1772.33,329.056L1676.68,8.117ZM1521.2,1012.91C1794.84,1012.91 2017,1236.46 2017,1511.81C2017,1787.16 1794.84,2010.71 1521.2,2010.71C1247.56,2010.71 1025.4,1787.16 1025.4,1511.81C1025.4,1236.46 1247.56,1012.91 1521.2,1012.91Z" style="fill:white;"/>
    </g>
</svg>
