<?xml version="1.0" encoding="UTF-8" standalone="no"?>
<!DOCTYPE svg PUBLIC "-//W3C//DTD SVG 1.1//EN" "http://www.w3.org/Graphics/SVG/1.1/DTD/svg11.dtd">
<svg width="100%" height="100%" viewBox="0 0 100 100" version="1.1" xmlns="http://www.w3.org/2000/svg" xmlns:xlink="http://www.w3.org/1999/xlink" xml:space="preserve" xmlns:serif="http://www.serif.com/" style="fill-rule:evenodd;clip-rule:evenodd;stroke-linecap:round;stroke-linejoin:round;stroke-miterlimit:1.5;">
    <g transform="matrix(0.388066,0,0,0.612925,16.287,2.3288)">
        <rect x="16.01" y="32.91" width="64.422" height="40.788" style="fill:none;stroke:white;stroke-width:1.95px;"/>
    </g>
    <g transform="matrix(0.374699,0,0,0.309486,17.2083,17.8533)">
        <path d="M39.326,38.467C39.326,38.467 40.647,44.058 39.326,49.039C38.004,54.02 32.617,58.391 37.903,57.273C43.188,56.155 52.337,55.342 52.337,55.342C52.337,55.342 53.964,49.649 56.098,44.16C58.233,38.671 63.207,31.148 63.207,31.148C63.207,31.148 62.909,25.151 55.488,48.531C48.068,71.911 47.966,80.348 47.966,80.348" style="fill:none;stroke:white;stroke-width:8.73px;"/>
    </g>
    <path d="M68.067,29.434C68.067,29.434 63.529,39.386 63.279,42.134" style="fill:none;stroke:white;stroke-width:3px;"/>
    <g transform="matrix(0.388066,0,0,0.612925,46.2871,2.32845)">
        <rect x="16.01" y="32.91" width="64.422" height="40.788" style="fill:none;stroke:white;stroke-width:1.95px;"/>
    </g>
    <g transform="matrix(0.388066,0,0,0.612925,16.287,32.3288)">
        <rect x="16.01" y="32.91" width="64.422" height="40.788" style="fill:none;stroke:white;stroke-width:1.95px;"/>
    </g>
    <g transform="matrix(0.388066,0,0,0.612925,46.2871,32.3284)">
        <rect x="16.01" y="32.91" width="64.422" height="40.788" style="fill:none;stroke:white;stroke-width:1.95px;"/>
    </g>
    <path d="M40.892,58.559C40.892,58.559 36.007,55.697 33.405,57.206C30.803,58.715 32.119,63.452 35,64.336C37.881,65.221 42.289,67.459 40.892,69.385C39.494,71.31 29.97,76.619 29.762,72.091C29.554,67.563 36.372,63.608 38.349,62.15C40.327,60.693 40.892,57.883 40.892,57.883" style="fill:none;stroke:white;stroke-width:3px;"/>
    <g transform="matrix(0.858152,0,0,0.862095,9.43267,8.02879)">
        <path d="M60.329,61.009C60.329,61.009 64.031,54.699 68.067,58.667C72.104,62.636 71.317,63.742 68.067,67.19C64.818,70.638 60.459,72.98 57.987,72.329C55.515,71.679 56.595,69.792 65,73.11C73.405,76.428 74.251,73.872 74.251,73.872" style="fill:none;stroke:white;stroke-width:3.49px;"/>
    </g>
</svg>
