<?xml version="1.0" encoding="UTF-8" standalone="no"?>
<!DOCTYPE svg PUBLIC "-//W3C//DTD SVG 1.1//EN" "http://www.w3.org/Graphics/SVG/1.1/DTD/svg11.dtd">
<svg width="100%" height="100%" viewBox="0 0 100 100" version="1.1" xmlns="http://www.w3.org/2000/svg" xmlns:xlink="http://www.w3.org/1999/xlink" xml:space="preserve" xmlns:serif="http://www.serif.com/" style="fill-rule:evenodd;clip-rule:evenodd;stroke-linecap:round;stroke-linejoin:round;stroke-miterlimit:1.5;">
    <g transform="matrix(0.776134,0,0,1.22586,12.574,-15.3427)">
        <rect x="16.01" y="32.91" width="64.422" height="40.788" style="fill:none;stroke:white;stroke-width:1.95px;"/>
    </g>
    <g transform="matrix(1,0,0,1,0.707006,0.707002)">
        <g>
            <path d="M33.086,47L36.086,50L33.086,53" style="fill:none;stroke:white;stroke-width:2px;stroke-linejoin:miter;stroke-miterlimit:10;"/>
            <path d="M12.5,50L36.086,50" style="fill:none;stroke:white;stroke-width:2px;"/>
        </g>
    </g>
    <g transform="matrix(1.10416,0,0,1,46.6461,0)">
        <g transform="matrix(0.905667,0,0,1,-41.6056,12.8535)">
            <path d="M83.086,47L86.086,50L83.086,53" style="fill:none;stroke:white;stroke-width:2px;stroke-linejoin:miter;stroke-miterlimit:10;"/>
            <path d="M62.5,50L86.086,50" style="fill:none;stroke:white;stroke-width:2px;"/>
        </g>
        <g transform="matrix(0.905667,0,0,1,-41.6056,-12.8535)">
            <path d="M83.086,47L86.086,50L83.086,53" style="fill:none;stroke:white;stroke-width:2px;stroke-linejoin:miter;stroke-miterlimit:10;"/>
            <path d="M62.5,50L86.086,50" style="fill:none;stroke:white;stroke-width:2px;"/>
        </g>
    </g>
</svg>
